<svg width="24" height="24" viewBox="0 0 24 24" fill="none" xmlns="http://www.w3.org/2000/svg">
<path d="M14.828 14.828C15.2101 14.459 15.5148 14.0176 15.7244 13.5296C15.9341 13.0416 16.0444 12.5167 16.049 11.9856C16.0537 11.4545 15.9525 10.9278 15.7513 10.4362C15.5502 9.9446 15.2532 9.498 14.8776 9.12242C14.5021 8.74685 14.0554 8.44984 13.5639 8.24872C13.0723 8.04759 12.5456 7.94639 12.0144 7.951C11.4833 7.95562 10.9584 8.06596 10.4704 8.2756C9.98241 8.48523 9.54103 8.78996 9.17204 9.172C8.44341 9.92641 8.04023 10.9368 8.04935 11.9856C8.05846 13.0344 8.47914 14.0376 9.22077 14.7793C9.9624 15.5209 10.9656 15.9416 12.0144 15.9507C13.0632 15.9598 14.0736 15.5566 14.828 14.828Z" stroke="#3C86F4" stroke-width="2" stroke-linecap="round" stroke-linejoin="round"/>
<path d="M9.17201 20.485C9.54346 20.1136 9.8381 19.6726 10.0391 19.1873C10.2402 18.702 10.3436 18.1818 10.3436 17.6565C10.3436 17.1312 10.2402 16.611 10.0391 16.1257C9.8381 15.6404 9.54346 15.1994 9.17201 14.828C8.80057 14.4566 8.3596 14.1619 7.87429 13.9609C7.38897 13.7599 6.86882 13.6564 6.34351 13.6564C5.81821 13.6564 5.29806 13.7599 4.81274 13.9609C4.32743 14.1619 3.88646 14.4566 3.51501 14.828M14.828 3.515C14.0778 4.26516 13.6564 5.28261 13.6564 6.3435C13.6564 7.40439 14.0778 8.42183 14.828 9.172C15.5782 9.92216 16.5956 10.3436 17.6565 10.3436C18.7174 10.3436 19.7349 9.92216 20.485 9.172" stroke="#3C86F4" stroke-width="2" stroke-linecap="round" stroke-linejoin="round"/>
</svg>
